<?xml version="1.0" encoding="iso-8859-1"?>
<!-- Generator: Adobe Illustrator 19.0.0, SVG Export Plug-In . SVG Version: 6.00 Build 0)  -->
<svg xmlns="http://www.w3.org/2000/svg" xmlns:xlink="http://www.w3.org/1999/xlink" version="1.1" id="Capa_1" x="0px" y="0px" viewBox="0 0 512 512" style="enable-background:new 0 0 512 512;" xml:space="preserve" width="512px" height="512px">
<g>
	<g>
		<path d="M462,0H50C22.43,0,0,22.43,0,50v48c0,27.57,22.43,50,50,50h412c27.57,0,50-22.43,50-50V50C512,22.43,489.57,0,462,0z     M472,98c0,5.514-4.486,10-10,10H50c-5.514,0-10-4.486-10-10V50c0-5.514,4.486-10,10-10h412c5.514,0,10,4.486,10,10V98z" fill="#5584ff"/>
	</g>
</g>
<g>
	<g>
		<path d="M462,364H50c-27.57,0-50,22.43-50,50v48c0,27.57,22.43,50,50,50h412c27.57,0,50-22.43,50-50v-48    C512,386.43,489.57,364,462,364z M472,462c0,5.514-4.486,10-10,10H50c-5.514,0-10-4.486-10-10v-48c0-5.514,4.486-10,10-10h412    c5.514,0,10,4.486,10,10V462z" fill="#5584ff"/>
	</g>
</g>
<g>
	<g>
		<path d="M462,182H50c-27.57,0-50,22.43-50,50v48c0,27.57,22.43,50,50,50h412c27.57,0,50-22.43,50-50v-48    C512,204.43,489.57,182,462,182z M472,280c0,5.514-4.486,10-10,10H50c-5.514,0-10-4.486-10-10v-48c0-5.514,4.486-10,10-10h412    c5.514,0,10,4.486,10,10V280z" fill="#5584ff"/>
	</g>
</g>
<g>
</g>
<g>
</g>
<g>
</g>
<g>
</g>
<g>
</g>
<g>
</g>
<g>
</g>
<g>
</g>
<g>
</g>
<g>
</g>
<g>
</g>
<g>
</g>
<g>
</g>
<g>
</g>
<g>
</g>
</svg>
